<mxfile host="app.diagrams.net" agent="Mozilla/5.0 (Macintosh; Intel Mac OS X 10_15_7) AppleWebKit/605.1.15 (KHTML, like Gecko) Version/18.0.1 Safari/605.1.15" version="26.2.2">
  <diagram name="Página-1" id="Wz9XratxmuEsZw-WgI5d">
    <mxGraphModel grid="1" page="1" gridSize="10" guides="1" tooltips="1" connect="1" arrows="1" fold="1" pageScale="1" pageWidth="850" pageHeight="1100" math="0" shadow="0">
      <root>
        <mxCell id="0" />
        <mxCell id="1" parent="0" />
        <mxCell id="pG0KdZwSCJCoLY5cNyxo-1" value="Sistemas embarcados e segurança" style="swimlane;childLayout=stackLayout;resizeParent=1;resizeParentMax=0;startSize=20;html=1;" vertex="1" parent="1">
          <mxGeometry x="100" y="50" width="690" height="690" as="geometry" />
        </mxCell>
        <mxCell id="pG0KdZwSCJCoLY5cNyxo-2" value="Operador" style="swimlane;startSize=20;html=1;" vertex="1" parent="pG0KdZwSCJCoLY5cNyxo-1">
          <mxGeometry y="20" width="170" height="670" as="geometry" />
        </mxCell>
        <mxCell id="pG0KdZwSCJCoLY5cNyxo-5" value="Fornecer credenciais" style="rounded=1;whiteSpace=wrap;html=1;" vertex="1" parent="pG0KdZwSCJCoLY5cNyxo-2">
          <mxGeometry x="14.999999999999545" y="40" width="120" height="60" as="geometry" />
        </mxCell>
        <mxCell id="pG0KdZwSCJCoLY5cNyxo-20" value="Há tentativas disponíveis" style="text;html=1;align=center;verticalAlign=middle;whiteSpace=wrap;rounded=0;" vertex="1" parent="pG0KdZwSCJCoLY5cNyxo-2">
          <mxGeometry x="105" y="280" width="65" height="60" as="geometry" />
        </mxCell>
        <mxCell id="pG0KdZwSCJCoLY5cNyxo-3" value="Sistema de autenticação" style="swimlane;startSize=20;html=1;" vertex="1" parent="pG0KdZwSCJCoLY5cNyxo-1">
          <mxGeometry x="170" y="20" width="180" height="670" as="geometry" />
        </mxCell>
        <mxCell id="pG0KdZwSCJCoLY5cNyxo-10" style="edgeStyle=orthogonalEdgeStyle;rounded=0;orthogonalLoop=1;jettySize=auto;html=1;exitX=0.75;exitY=1;exitDx=0;exitDy=0;entryX=0.5;entryY=0;entryDx=0;entryDy=0;" edge="1" parent="pG0KdZwSCJCoLY5cNyxo-3" source="pG0KdZwSCJCoLY5cNyxo-9" target="pG0KdZwSCJCoLY5cNyxo-6">
          <mxGeometry relative="1" as="geometry" />
        </mxCell>
        <mxCell id="pG0KdZwSCJCoLY5cNyxo-9" value="Verificar credenciais" style="rounded=1;whiteSpace=wrap;html=1;" vertex="1" parent="pG0KdZwSCJCoLY5cNyxo-3">
          <mxGeometry x="30" y="40" width="120" height="60" as="geometry" />
        </mxCell>
        <mxCell id="pG0KdZwSCJCoLY5cNyxo-6" value="" style="rhombus;whiteSpace=wrap;html=1;" vertex="1" parent="pG0KdZwSCJCoLY5cNyxo-3">
          <mxGeometry x="95" y="120" width="25" height="30" as="geometry" />
        </mxCell>
        <mxCell id="pG0KdZwSCJCoLY5cNyxo-12" value="Autenticar operador" style="rounded=1;whiteSpace=wrap;html=1;" vertex="1" parent="pG0KdZwSCJCoLY5cNyxo-3">
          <mxGeometry x="30" y="220" width="120" height="60" as="geometry" />
        </mxCell>
        <mxCell id="pG0KdZwSCJCoLY5cNyxo-11" value="Credenciais identificadas com sucesso" style="text;html=1;align=center;verticalAlign=middle;whiteSpace=wrap;rounded=0;" vertex="1" parent="pG0KdZwSCJCoLY5cNyxo-3">
          <mxGeometry x="115" y="170" width="60" height="30" as="geometry" />
        </mxCell>
        <mxCell id="pG0KdZwSCJCoLY5cNyxo-16" style="edgeStyle=orthogonalEdgeStyle;rounded=0;orthogonalLoop=1;jettySize=auto;html=1;exitX=0.5;exitY=1;exitDx=0;exitDy=0;" edge="1" parent="pG0KdZwSCJCoLY5cNyxo-3" source="pG0KdZwSCJCoLY5cNyxo-6">
          <mxGeometry relative="1" as="geometry">
            <mxPoint x="108" y="220" as="targetPoint" />
          </mxGeometry>
        </mxCell>
        <mxCell id="pG0KdZwSCJCoLY5cNyxo-23" style="edgeStyle=orthogonalEdgeStyle;rounded=0;orthogonalLoop=1;jettySize=auto;html=1;exitX=0.5;exitY=1;exitDx=0;exitDy=0;entryX=0.5;entryY=0;entryDx=0;entryDy=0;" edge="1" parent="pG0KdZwSCJCoLY5cNyxo-3" source="pG0KdZwSCJCoLY5cNyxo-19" target="pG0KdZwSCJCoLY5cNyxo-22">
          <mxGeometry relative="1" as="geometry" />
        </mxCell>
        <mxCell id="pG0KdZwSCJCoLY5cNyxo-19" value="" style="rhombus;whiteSpace=wrap;html=1;" vertex="1" parent="pG0KdZwSCJCoLY5cNyxo-3">
          <mxGeometry x="5" y="290" width="30" height="30" as="geometry" />
        </mxCell>
        <mxCell id="pG0KdZwSCJCoLY5cNyxo-18" style="edgeStyle=orthogonalEdgeStyle;rounded=0;orthogonalLoop=1;jettySize=auto;html=1;exitX=0;exitY=0.5;exitDx=0;exitDy=0;" edge="1" parent="pG0KdZwSCJCoLY5cNyxo-3" source="pG0KdZwSCJCoLY5cNyxo-6" target="pG0KdZwSCJCoLY5cNyxo-19">
          <mxGeometry relative="1" as="geometry">
            <mxPoint x="15" y="330" as="targetPoint" />
          </mxGeometry>
        </mxCell>
        <mxCell id="pG0KdZwSCJCoLY5cNyxo-22" value="" style="ellipse;html=1;shape=endState;fillColor=#000000;strokeColor=#ff0000;" vertex="1" parent="pG0KdZwSCJCoLY5cNyxo-3">
          <mxGeometry x="5" y="400" width="30" height="30" as="geometry" />
        </mxCell>
        <mxCell id="pG0KdZwSCJCoLY5cNyxo-25" value="Tentativas esgotadas" style="text;html=1;align=center;verticalAlign=middle;whiteSpace=wrap;rounded=0;" vertex="1" parent="pG0KdZwSCJCoLY5cNyxo-3">
          <mxGeometry x="20" y="330" width="60" height="30" as="geometry" />
        </mxCell>
        <mxCell id="pG0KdZwSCJCoLY5cNyxo-29" value="Credenciais não identificadas" style="text;html=1;align=center;verticalAlign=middle;whiteSpace=wrap;rounded=0;" vertex="1" parent="pG0KdZwSCJCoLY5cNyxo-3">
          <mxGeometry x="26" y="140" width="60" height="30" as="geometry" />
        </mxCell>
        <mxCell id="pG0KdZwSCJCoLY5cNyxo-4" value="Sistema embarcado" style="swimlane;startSize=20;html=1;" vertex="1" parent="pG0KdZwSCJCoLY5cNyxo-1">
          <mxGeometry x="350" y="20" width="170" height="670" as="geometry" />
        </mxCell>
        <mxCell id="pG0KdZwSCJCoLY5cNyxo-33" style="edgeStyle=orthogonalEdgeStyle;rounded=0;orthogonalLoop=1;jettySize=auto;html=1;exitX=0.5;exitY=1;exitDx=0;exitDy=0;entryX=0.5;entryY=0;entryDx=0;entryDy=0;" edge="1" parent="pG0KdZwSCJCoLY5cNyxo-4" source="pG0KdZwSCJCoLY5cNyxo-30" target="pG0KdZwSCJCoLY5cNyxo-32">
          <mxGeometry relative="1" as="geometry" />
        </mxCell>
        <mxCell id="pG0KdZwSCJCoLY5cNyxo-30" value="Iniciar operação" style="rounded=1;whiteSpace=wrap;html=1;" vertex="1" parent="pG0KdZwSCJCoLY5cNyxo-4">
          <mxGeometry x="25" y="220" width="120" height="60" as="geometry" />
        </mxCell>
        <mxCell id="pG0KdZwSCJCoLY5cNyxo-32" value="Executar processos" style="rounded=1;whiteSpace=wrap;html=1;" vertex="1" parent="pG0KdZwSCJCoLY5cNyxo-4">
          <mxGeometry x="25" y="330" width="120" height="60" as="geometry" />
        </mxCell>
        <mxCell id="pG0KdZwSCJCoLY5cNyxo-39" value="Acionar mecanismos de segurança" style="rounded=1;whiteSpace=wrap;html=1;" vertex="1" parent="pG0KdZwSCJCoLY5cNyxo-4">
          <mxGeometry x="27.5" y="410" width="115" height="60" as="geometry" />
        </mxCell>
        <mxCell id="pG0KdZwSCJCoLY5cNyxo-21" style="edgeStyle=orthogonalEdgeStyle;rounded=0;orthogonalLoop=1;jettySize=auto;html=1;exitX=0;exitY=0.5;exitDx=0;exitDy=0;entryX=1;entryY=0.5;entryDx=0;entryDy=0;" edge="1" parent="pG0KdZwSCJCoLY5cNyxo-1" source="pG0KdZwSCJCoLY5cNyxo-19" target="pG0KdZwSCJCoLY5cNyxo-5">
          <mxGeometry relative="1" as="geometry">
            <Array as="points">
              <mxPoint x="150" y="325" />
              <mxPoint x="150" y="90" />
            </Array>
          </mxGeometry>
        </mxCell>
        <mxCell id="pG0KdZwSCJCoLY5cNyxo-28" style="edgeStyle=orthogonalEdgeStyle;rounded=0;orthogonalLoop=1;jettySize=auto;html=1;exitX=1;exitY=0.25;exitDx=0;exitDy=0;entryX=0;entryY=0.5;entryDx=0;entryDy=0;" edge="1" parent="pG0KdZwSCJCoLY5cNyxo-1" source="pG0KdZwSCJCoLY5cNyxo-5" target="pG0KdZwSCJCoLY5cNyxo-9">
          <mxGeometry relative="1" as="geometry" />
        </mxCell>
        <mxCell id="pG0KdZwSCJCoLY5cNyxo-31" style="edgeStyle=orthogonalEdgeStyle;rounded=0;orthogonalLoop=1;jettySize=auto;html=1;exitX=1;exitY=0.5;exitDx=0;exitDy=0;entryX=0;entryY=0.5;entryDx=0;entryDy=0;" edge="1" parent="pG0KdZwSCJCoLY5cNyxo-1" source="pG0KdZwSCJCoLY5cNyxo-12" target="pG0KdZwSCJCoLY5cNyxo-30">
          <mxGeometry relative="1" as="geometry" />
        </mxCell>
        <mxCell id="pG0KdZwSCJCoLY5cNyxo-35" style="edgeStyle=orthogonalEdgeStyle;rounded=0;orthogonalLoop=1;jettySize=auto;html=1;exitX=1;exitY=0.5;exitDx=0;exitDy=0;entryX=0;entryY=0.5;entryDx=0;entryDy=0;" edge="1" parent="pG0KdZwSCJCoLY5cNyxo-1" source="pG0KdZwSCJCoLY5cNyxo-32" target="pG0KdZwSCJCoLY5cNyxo-34">
          <mxGeometry relative="1" as="geometry" />
        </mxCell>
        <mxCell id="pG0KdZwSCJCoLY5cNyxo-40" style="edgeStyle=orthogonalEdgeStyle;rounded=0;orthogonalLoop=1;jettySize=auto;html=1;exitX=0;exitY=0.5;exitDx=0;exitDy=0;entryX=1;entryY=0.5;entryDx=0;entryDy=0;" edge="1" parent="pG0KdZwSCJCoLY5cNyxo-1" source="pG0KdZwSCJCoLY5cNyxo-36" target="pG0KdZwSCJCoLY5cNyxo-39">
          <mxGeometry relative="1" as="geometry" />
        </mxCell>
        <mxCell id="pG0KdZwSCJCoLY5cNyxo-8" value="Sistema de monitoramento" style="swimlane;startSize=20;html=1;" vertex="1" parent="pG0KdZwSCJCoLY5cNyxo-1">
          <mxGeometry x="520" y="20" width="170" height="670" as="geometry" />
        </mxCell>
        <mxCell id="pG0KdZwSCJCoLY5cNyxo-37" style="edgeStyle=orthogonalEdgeStyle;rounded=0;orthogonalLoop=1;jettySize=auto;html=1;exitX=0.5;exitY=1;exitDx=0;exitDy=0;entryX=0.5;entryY=0;entryDx=0;entryDy=0;" edge="1" parent="pG0KdZwSCJCoLY5cNyxo-8" source="pG0KdZwSCJCoLY5cNyxo-34" target="pG0KdZwSCJCoLY5cNyxo-36">
          <mxGeometry relative="1" as="geometry" />
        </mxCell>
        <mxCell id="pG0KdZwSCJCoLY5cNyxo-34" value="Monitorar processos do sistema operacional" style="rounded=1;whiteSpace=wrap;html=1;" vertex="1" parent="pG0KdZwSCJCoLY5cNyxo-8">
          <mxGeometry x="25" y="330" width="120" height="60" as="geometry" />
        </mxCell>
        <mxCell id="pG0KdZwSCJCoLY5cNyxo-42" style="edgeStyle=orthogonalEdgeStyle;rounded=0;orthogonalLoop=1;jettySize=auto;html=1;exitX=0.5;exitY=1;exitDx=0;exitDy=0;entryX=0.5;entryY=0;entryDx=0;entryDy=0;" edge="1" parent="pG0KdZwSCJCoLY5cNyxo-8" source="pG0KdZwSCJCoLY5cNyxo-36" target="pG0KdZwSCJCoLY5cNyxo-41">
          <mxGeometry relative="1" as="geometry" />
        </mxCell>
        <mxCell id="pG0KdZwSCJCoLY5cNyxo-36" value="" style="rhombus;whiteSpace=wrap;html=1;" vertex="1" parent="pG0KdZwSCJCoLY5cNyxo-8">
          <mxGeometry x="72.5" y="420" width="25" height="25" as="geometry" />
        </mxCell>
        <mxCell id="pG0KdZwSCJCoLY5cNyxo-38" value="Falha detectada" style="text;html=1;align=center;verticalAlign=middle;whiteSpace=wrap;rounded=0;" vertex="1" parent="pG0KdZwSCJCoLY5cNyxo-8">
          <mxGeometry x="12.5" y="440" width="60" height="30" as="geometry" />
        </mxCell>
        <mxCell id="pG0KdZwSCJCoLY5cNyxo-41" value="" style="ellipse;html=1;shape=endState;fillColor=#000000;strokeColor=#ff0000;" vertex="1" parent="pG0KdZwSCJCoLY5cNyxo-8">
          <mxGeometry x="70" y="590" width="30" height="30" as="geometry" />
        </mxCell>
        <mxCell id="pG0KdZwSCJCoLY5cNyxo-43" value="Nenhuma falha foi detectada" style="text;html=1;align=center;verticalAlign=middle;whiteSpace=wrap;rounded=0;" vertex="1" parent="pG0KdZwSCJCoLY5cNyxo-8">
          <mxGeometry x="85" y="490" width="60" height="30" as="geometry" />
        </mxCell>
        <mxCell id="pG0KdZwSCJCoLY5cNyxo-44" style="edgeStyle=orthogonalEdgeStyle;rounded=0;orthogonalLoop=1;jettySize=auto;html=1;exitX=1;exitY=0.25;exitDx=0;exitDy=0;entryX=0.25;entryY=1;entryDx=0;entryDy=0;" edge="1" parent="pG0KdZwSCJCoLY5cNyxo-1" source="pG0KdZwSCJCoLY5cNyxo-39" target="pG0KdZwSCJCoLY5cNyxo-34">
          <mxGeometry relative="1" as="geometry" />
        </mxCell>
      </root>
    </mxGraphModel>
  </diagram>
</mxfile>
